<svg width="22" height="29" viewBox="0 0 22 29" fill="none" xmlns="http://www.w3.org/2000/svg">
<g clip-path="url(#clip0_101_4)">
<path d="M11 29C4.92708 29 0 24.1289 0 18.125C0 12.9594 7.45938 3.26816 9.54479 0.662695C9.88854 0.237891 10.3984 0 10.9484 0H11.0516C11.6016 0 12.1115 0.237891 12.4552 0.662695C14.5406 3.26816 22 12.9594 22 18.125C22 24.1289 17.0729 29 11 29ZM5.5 19.0312C5.5 18.5328 5.0875 18.125 4.58333 18.125C4.07917 18.125 3.66667 18.5328 3.66667 19.0312C3.66667 22.5373 6.53698 25.375 10.0833 25.375C10.5875 25.375 11 24.9672 11 24.4688C11 23.9703 10.5875 23.5625 10.0833 23.5625C7.55104 23.5625 5.5 21.5348 5.5 19.0312Z" fill="#964B00"/>
</g>
<defs>
<clipPath id="clip0_101_4">
<rect width="22" height="29" fill="white"/>
</clipPath>
</defs>
</svg>
