<svg width="24" height="32" viewBox="0 0 24 32" fill="none" xmlns="http://www.w3.org/2000/svg">
<g clip-path="url(#clip0_101_2)">
<path d="M13.9687 2C6.25 2 0 8.26875 0 16C0 23.7312 6.25 30 13.9687 30C17.7562 30 21.1875 28.4875 23.7062 26.0375C24.0187 25.7313 24.1 25.2562 23.9 24.8687C23.7 24.4812 23.2687 24.2625 22.8375 24.3375C22.225 24.4437 21.6 24.5 20.9562 24.5C14.9 24.5 9.9875 19.575 9.9875 13.5C9.9875 9.3875 12.2375 5.80625 15.5687 3.91875C15.95 3.7 16.1437 3.2625 16.05 2.8375C15.9562 2.4125 15.5937 2.09375 15.1562 2.05625C14.7625 2.025 14.3687 2.00625 13.9687 2.00625V2Z" fill="#A4A4A4"/>
</g>
<defs>
<clipPath id="clip0_101_2">
<rect width="24" height="32" fill="white"/>
</clipPath>
</defs>
</svg>
