<svg width="37" height="37" viewBox="0 0 37 37" fill="none" xmlns="http://www.w3.org/2000/svg">
<path d="M24.9502 2.92182C25.2559 3.05021 25.476 3.32534 25.5371 3.64938L26.7538 10.2463L33.3507 11.4568C33.6747 11.518 33.9499 11.7381 34.0783 12.0438C34.2066 12.3495 34.17 12.6979 33.9804 12.9731L30.1715 18.5L33.9804 24.0209C34.17 24.296 34.2066 24.6445 34.0783 24.9502C33.9499 25.2559 33.6747 25.476 33.3507 25.5371L26.7538 26.7538L25.5371 33.3507C25.476 33.6747 25.2559 33.9499 24.9502 34.0783C24.6445 34.2066 24.296 34.17 24.0209 33.9804L18.5 30.1715L12.9792 33.9804C12.7041 34.17 12.3556 34.2066 12.0499 34.0783C11.7442 33.9499 11.5241 33.6747 11.4629 33.3507L10.2463 26.7538L3.64938 25.5371C3.32534 25.476 3.05021 25.2559 2.92182 24.9502C2.79343 24.6445 2.83011 24.296 3.01964 24.0209L6.8286 18.5L3.01964 12.9792C2.83011 12.7041 2.79343 12.3556 2.92182 12.0499C3.05021 11.7442 3.32534 11.5241 3.64938 11.4629L10.2463 10.2463L11.4629 3.64938C11.5241 3.32534 11.7442 3.05021 12.0499 2.92182C12.3556 2.79343 12.7041 2.83011 12.9792 3.01964L18.5 6.8286L24.0209 3.01964C24.296 2.83011 24.6445 2.79343 24.9502 2.92182ZM24.3694 18.5C24.3694 21.7404 21.7404 24.3694 18.5 24.3694C15.2597 24.3694 12.6307 21.7404 12.6307 18.5C12.6307 15.2597 15.2597 12.6307 18.5 12.6307C21.7404 12.6307 24.3694 15.2597 24.3694 18.5ZM26.3258 18.5C26.3258 14.1775 22.8226 10.6742 18.5 10.6742C14.1775 10.6742 10.6742 14.1775 10.6742 18.5C10.6742 22.8226 14.1775 26.3258 18.5 26.3258C22.8226 26.3258 26.3258 22.8226 26.3258 18.5Z" fill="#ECAB3B"/>
</svg>
