<svg width="11" height="15" viewBox="0 0 11 15" fill="none" xmlns="http://www.w3.org/2000/svg">
<g clip-path="url(#clip0_12_128)">
<path d="M6.17891 14.625C7.64844 12.7441 11 8.18555 11 5.625C11 2.51953 8.53646 0 5.5 0C2.46354 0 0 2.51953 0 5.625C0 8.18555 3.35156 12.7441 4.82109 14.625C5.17344 15.0732 5.82656 15.0732 6.17891 14.625V14.625ZM5.5 7.5C4.4888 7.5 3.66667 6.65918 3.66667 5.625C3.66667 4.59082 4.4888 3.75 5.5 3.75C6.5112 3.75 7.33333 4.59082 7.33333 5.625C7.33333 6.65918 6.5112 7.5 5.5 7.5Z" fill="#2D2D2D" fill-opacity="0.85"/>
</g>
<defs>
<clipPath id="clip0_12_128">
<rect width="11" height="15" fill="white"/>
</clipPath>
</defs>
</svg>
