<svg width="25" height="25" viewBox="0 0 25 25" fill="none" xmlns="http://www.w3.org/2000/svg">
<g clip-path="url(#clip0_76_386)">
<path d="M24.5256 7.79813L13.0999 0.18094C12.7099 -0.0590506 12.2937 -0.0612478 11.9001 0.18094L0.474316 7.79813C0.181348 7.99339 0 8.34222 0 8.69095V16.3081C0 16.6569 0.181348 17.0056 0.474365 17.201L11.9001 24.8192C12.2901 25.0592 12.7063 25.0614 13.0999 24.8192L24.5257 17.201C24.8187 17.0057 25 16.6569 25 16.3081V8.69095C25 8.34222 24.8187 7.99339 24.5256 7.79813V7.79813ZM13.5742 3.08265L21.9866 8.69095L18.2338 11.2021L13.5742 8.09105V3.08265ZM11.4258 3.08265V8.09105L6.76616 11.2021L3.01338 8.69095L11.4258 3.08265ZM2.14844 10.6999L4.84097 12.4995L2.14844 14.2992V10.6999ZM11.4258 21.9164L3.01338 16.3081L6.76616 13.797L11.4258 16.908V21.9164ZM12.5 15.0386L8.70532 12.4995L12.5 9.96048L16.2947 12.4995L12.5 15.0386ZM13.5742 21.9164V16.908L18.2338 13.797L21.9866 16.3081L13.5742 21.9164ZM22.8516 14.2992L20.159 12.4995L22.8516 10.6999V14.2992Z" fill="#4E4E4E"/>
</g>
<defs>
<clipPath id="clip0_76_386">
<rect width="25" height="25" fill="white"/>
</clipPath>
</defs>
</svg>
