<svg width="22" height="25" viewBox="0 0 22 25" fill="none" xmlns="http://www.w3.org/2000/svg">
<path d="M20.4286 1.5625H1.56652C0.702232 1.5625 0 2.27051 0 3.13965V21.8604C0 22.7295 0.702232 23.4375 1.56652 23.4375H20.4286C21.2929 23.4375 22 22.7295 22 21.8604V3.13965C22 2.27051 21.2929 1.5625 20.4286 1.5625ZM6.64911 20.3125H3.38839V9.87305H6.65402V20.3125H6.64911ZM5.01875 8.44727C3.97277 8.44727 3.12812 7.60254 3.12812 6.56738C3.12812 5.53223 3.97277 4.6875 5.01875 4.6875C6.05982 4.6875 6.90937 5.53223 6.90937 6.56738C6.90937 7.60742 6.06473 8.44727 5.01875 8.44727V8.44727ZM18.8719 20.3125H15.6112V15.2344C15.6112 14.0234 15.5866 12.4658 13.917 12.4658C12.2179 12.4658 11.9576 13.7842 11.9576 15.1465V20.3125H8.69688V9.87305H11.825V11.2988H11.8692C12.3062 10.4785 13.3719 9.61426 14.958 9.61426C18.258 9.61426 18.8719 11.7773 18.8719 14.5898V20.3125V20.3125Z" fill="#4E4E4E"/>
</svg>
