<svg width="21" height="21" viewBox="0 0 21 21" fill="none" xmlns="http://www.w3.org/2000/svg">
<g clip-path="url(#clip0_12_143)">
<path d="M11.8125 1.3125C11.8125 0.586523 11.226 0 10.5 0C9.77402 0 9.1875 0.586523 9.1875 1.3125V11.267L6.17695 8.25645C5.66426 7.74375 4.83164 7.74375 4.31895 8.25645C3.80625 8.76914 3.80625 9.60176 4.31895 10.1145L9.56895 15.3645C10.0816 15.8771 10.9143 15.8771 11.427 15.3645L16.677 10.1145C17.1896 9.60176 17.1896 8.76914 16.677 8.25645C16.1643 7.74375 15.3316 7.74375 14.8189 8.25645L11.8125 11.267V1.3125ZM2.625 14.4375C1.17715 14.4375 0 15.6146 0 17.0625V18.375C0 19.8229 1.17715 21 2.625 21H18.375C19.8229 21 21 19.8229 21 18.375V17.0625C21 15.6146 19.8229 14.4375 18.375 14.4375H14.2119L12.3539 16.2955C11.3285 17.3209 9.66738 17.3209 8.64199 16.2955L6.78809 14.4375H2.625ZM17.7188 18.7031C17.1732 18.7031 16.7344 18.2643 16.7344 17.7188C16.7344 17.1732 17.1732 16.7344 17.7188 16.7344C18.2643 16.7344 18.7031 17.1732 18.7031 17.7188C18.7031 18.2643 18.2643 18.7031 17.7188 18.7031Z" fill="#F0F0F0"/>
</g>
<defs>
<clipPath id="clip0_12_143">
<rect width="21" height="21" fill="white"/>
</clipPath>
</defs>
</svg>
