<svg width="22" height="23" viewBox="0 0 22 23" fill="none" xmlns="http://www.w3.org/2000/svg">
<g clip-path="url(#clip0_42_11)">
<path d="M15.125 11.5C15.125 12.4973 15.0734 13.4586 14.9832 14.375H7.0168C6.92227 13.4586 6.875 12.4973 6.875 11.5C6.875 10.5027 6.92656 9.54141 7.0168 8.625H14.9832C15.0777 9.54141 15.125 10.5027 15.125 11.5ZM16.3625 8.625H21.652C21.8797 9.5459 22 10.5072 22 11.5C22 12.4928 21.8797 13.4541 21.652 14.375H16.3625C16.4527 13.4496 16.5 12.4883 16.5 11.5C16.5 10.5117 16.4527 9.55039 16.3625 8.625ZM21.2008 7.1875H16.1863C15.7566 4.31699 14.9059 1.91367 13.8102 0.377344C17.1746 1.30723 19.9117 3.85879 21.1965 7.1875H21.2008ZM14.7941 7.1875H7.20586C7.46797 5.55234 7.87187 4.10586 8.36602 2.9334C8.81719 1.87324 9.31992 1.10508 9.80547 0.619922C10.2867 0.14375 10.6863 0 11 0C11.3137 0 11.7133 0.14375 12.1945 0.619922C12.6801 1.10508 13.1828 1.87324 13.634 2.9334C14.1324 4.10137 14.5363 5.54785 14.7941 7.1875ZM5.81367 7.1875H0.799219C2.08828 3.85879 4.82109 1.30723 8.18984 0.377344C7.09414 1.91367 6.24336 4.31699 5.81367 7.1875ZM0.348047 8.625H5.6375C5.54727 9.55039 5.5 10.5117 5.5 11.5C5.5 12.4883 5.54727 13.4496 5.6375 14.375H0.348047C0.120313 13.4541 0 12.4928 0 11.5C0 10.5072 0.120313 9.5459 0.348047 8.625ZM8.36602 20.0621C7.86758 18.8941 7.46797 17.4477 7.20586 15.8125H14.7941C14.532 17.4477 14.1281 18.8941 13.634 20.0621C13.1828 21.1223 12.6801 21.8904 12.1945 22.3756C11.7133 22.8563 11.3137 23 11 23C10.6863 23 10.2867 22.8563 9.80547 22.3801C9.31992 21.8949 8.81719 21.1268 8.36602 20.0666V20.0621ZM5.81367 15.8125C6.24336 18.683 7.09414 21.0863 8.18984 22.6227C4.82109 21.6928 2.08828 19.1412 0.799219 15.8125H5.81367ZM21.2008 15.8125C19.9117 19.1412 17.1789 21.6928 13.8145 22.6227C14.9102 21.0863 15.7566 18.683 16.1906 15.8125H21.2008Z" fill="white"/>
</g>
<defs>
<clipPath id="clip0_42_11">
<rect width="22" height="23" fill="white"/>
</clipPath>
</defs>
</svg>
