<svg width="22" height="23" viewBox="0 0 22 23" fill="none" xmlns="http://www.w3.org/2000/svg">
<g clip-path="url(#clip0_42_9)">
<path d="M7.35847 17.852C7.35847 17.9418 7.25645 18.0137 7.12782 18.0137C6.98145 18.0271 6.87944 17.9553 6.87944 17.852C6.87944 17.7621 6.98145 17.6902 7.11008 17.6902C7.24315 17.6768 7.35847 17.7486 7.35847 17.852ZM5.97903 17.6498C5.94798 17.7396 6.03669 17.843 6.16976 17.8699C6.28508 17.9148 6.41815 17.8699 6.44476 17.7801C6.47137 17.6902 6.3871 17.5869 6.25403 17.5465C6.13871 17.515 6.01008 17.56 5.97903 17.6498ZM7.93952 17.5734C7.81089 17.6049 7.72218 17.6902 7.73548 17.7936C7.74879 17.8834 7.86411 17.9418 7.99718 17.9104C8.12581 17.8789 8.21452 17.7936 8.20121 17.7037C8.1879 17.6184 8.06814 17.56 7.93952 17.5734ZM10.8581 0.359375C4.70605 0.359375 0 5.08965 0 11.3203C0 16.3021 3.09597 20.5652 7.51814 22.0656C8.08589 22.1689 8.28548 21.8141 8.28548 21.5221C8.28548 21.2436 8.27218 19.7072 8.27218 18.7639C8.27218 18.7639 5.16734 19.4377 4.51532 17.4252C4.51532 17.4252 4.00968 16.118 3.28226 15.7811C3.28226 15.7811 2.26653 15.0758 3.35323 15.0893C3.35323 15.0893 4.45766 15.1791 5.06532 16.2482C6.03669 17.9822 7.66452 17.4836 8.29879 17.1871C8.40081 16.4684 8.68911 15.9697 9.00847 15.6732C6.52903 15.3947 4.02742 15.0309 4.02742 10.7094C4.02742 9.47402 4.36452 8.8541 5.07419 8.06348C4.95887 7.77148 4.58185 6.56758 5.18952 5.01328C6.11653 4.72129 8.25 6.22617 8.25 6.22617C9.1371 5.97461 10.0907 5.84434 11.0355 5.84434C11.9802 5.84434 12.9339 5.97461 13.821 6.22617C13.821 6.22617 15.9544 4.7168 16.8815 5.01328C17.4891 6.57207 17.1121 7.77148 16.9968 8.06348C17.7065 8.85859 18.1411 9.47852 18.1411 10.7094C18.1411 15.0443 15.5286 15.3902 13.0492 15.6732C13.4573 16.0281 13.8032 16.702 13.8032 17.7576C13.8032 19.2715 13.7899 21.1447 13.7899 21.5131C13.7899 21.8051 13.994 22.16 14.5573 22.0566C18.9927 20.5652 22 16.3021 22 11.3203C22 5.08965 17.0101 0.359375 10.8581 0.359375ZM4.31129 15.8529C4.25363 15.8979 4.26694 16.0012 4.34234 16.0865C4.41331 16.1584 4.51532 16.1898 4.57298 16.1314C4.63064 16.0865 4.61734 15.9832 4.54194 15.8979C4.47097 15.826 4.36895 15.7945 4.31129 15.8529ZM3.83226 15.4891C3.80121 15.5475 3.84556 15.6193 3.93427 15.6643C4.00524 15.7092 4.09395 15.6957 4.125 15.6328C4.15605 15.5744 4.11169 15.5025 4.02298 15.4576C3.93427 15.4307 3.86331 15.4441 3.83226 15.4891ZM5.26935 17.0883C5.19839 17.1467 5.225 17.2814 5.32702 17.3668C5.42903 17.4701 5.55766 17.4836 5.61532 17.4117C5.67298 17.3533 5.64637 17.2186 5.55766 17.1332C5.46008 17.0299 5.32702 17.0164 5.26935 17.0883ZM4.76371 16.4279C4.69274 16.4729 4.69274 16.5896 4.76371 16.693C4.83468 16.7963 4.95444 16.8412 5.0121 16.7963C5.08306 16.7379 5.08306 16.6211 5.0121 16.5178C4.95 16.4145 4.83468 16.3695 4.76371 16.4279Z" fill="white"/>
</g>
<defs>
<clipPath id="clip0_42_9">
<rect width="22" height="23" fill="white"/>
</clipPath>
</defs>
</svg>
