<svg width="22" height="21" viewBox="0 0 22 21" fill="none" xmlns="http://www.w3.org/2000/svg">
<path d="M7.3488 16.8719C7.3488 16.9586 7.24692 17.0279 7.11846 17.0279C6.97228 17.0409 6.8704 16.9716 6.8704 16.8719C6.8704 16.7853 6.97228 16.716 7.10074 16.716C7.23363 16.703 7.3488 16.7723 7.3488 16.8719ZM5.97118 16.677C5.94017 16.7636 6.02876 16.8633 6.16165 16.8893C6.27682 16.9326 6.40971 16.8893 6.43629 16.8026C6.46287 16.716 6.37871 16.6163 6.24582 16.5773C6.13064 16.547 6.00219 16.5903 5.97118 16.677ZM7.92909 16.6033C7.80063 16.6336 7.71203 16.716 7.72532 16.8156C7.73861 16.9023 7.85378 16.9586 7.98667 16.9283C8.11513 16.8979 8.20372 16.8156 8.19044 16.729C8.17715 16.6466 8.05755 16.5903 7.92909 16.6033ZM10.8438 0C4.69987 0 0 4.56244 0 10.572C0 15.3771 3.0919 19.489 7.50827 20.9361C8.07526 21.0358 8.2746 20.6935 8.2746 20.4118C8.2746 20.1432 8.26131 18.6614 8.26131 17.7515C8.26131 17.7515 5.16055 18.4014 4.50939 16.4603C4.50939 16.4603 4.00441 15.1995 3.27795 14.8745C3.27795 14.8745 2.26355 14.1943 3.34882 14.2073C3.34882 14.2073 4.4518 14.2939 5.05867 15.3251C6.02876 16.9976 7.65445 16.5166 8.28789 16.2307C8.38977 15.5374 8.6777 15.0565 8.99663 14.7705C6.52045 14.5019 4.02213 14.1509 4.02213 9.98278C4.02213 8.79126 4.35878 8.19333 5.06753 7.43076C4.95236 7.14913 4.57584 5.98793 5.1827 4.48878C6.1085 4.20715 8.23916 5.65864 8.23916 5.65864C9.12509 5.41601 10.0775 5.29035 11.021 5.29035C11.9645 5.29035 12.9169 5.41601 13.8028 5.65864C13.8028 5.65864 15.9335 4.20282 16.8593 4.48878C17.4661 5.99227 17.0896 7.14913 16.9744 7.43076C17.6832 8.19766 18.1173 8.79559 18.1173 9.98278C18.1173 14.1639 15.5082 14.4976 13.0321 14.7705C13.4396 15.1128 13.7851 15.7627 13.7851 16.7809C13.7851 18.2411 13.7718 20.0479 13.7718 20.4032C13.7718 20.6848 13.9756 21.0271 14.5381 20.9274C18.9678 19.489 21.9711 15.3771 21.9711 10.572C21.9711 4.56244 16.9877 0 10.8438 0ZM4.30563 14.9438C4.24804 14.9872 4.26133 15.0868 4.33663 15.1691C4.40751 15.2385 4.50939 15.2688 4.56698 15.2125C4.62456 15.1691 4.61127 15.0695 4.53597 14.9872C4.46509 14.9178 4.36321 14.8875 4.30563 14.9438ZM3.82722 14.5929C3.79622 14.6492 3.84051 14.7185 3.92911 14.7619C3.99998 14.8052 4.08857 14.7922 4.11958 14.7315C4.15059 14.6752 4.10629 14.6059 4.0177 14.5626C3.92911 14.5366 3.85823 14.5496 3.82722 14.5929ZM5.26243 16.1354C5.19156 16.1917 5.21814 16.3217 5.32002 16.404C5.4219 16.5036 5.55036 16.5166 5.60795 16.4473C5.66553 16.391 5.63895 16.261 5.55036 16.1787C5.45291 16.079 5.32002 16.066 5.26243 16.1354ZM4.75745 15.4984C4.68658 15.5418 4.68658 15.6544 4.75745 15.7541C4.82833 15.8537 4.94793 15.8971 5.00551 15.8537C5.07639 15.7974 5.07639 15.6847 5.00551 15.5851C4.9435 15.4854 4.82833 15.4421 4.75745 15.4984Z" fill="#F0F0F0"/>
</svg>
